<svg id="Layer_1" height="50" viewBox="0 0 512 512" width="50" xmlns="http://www.w3.org/2000/svg" data-name="Layer 1"><path d="m492.15 78.12v250.95a38.485 38.485 0 0 1 -38.53 38.52h-97.94a6.146 6.146 0 0 0 -6.17 6.47c3.31 76.39-61.25 93.82-61.25 93.82s24.94-100.29-42.95-100.29h-191.46a34 34 0 0 1 -34-34v-255.47a34 34 0 0 1 34-34h404.3a34 34 0 0 1 34 34z" fill="#5fcda4"/><path d="m71.76 156.96-17.65 144h44.53l17.65-144z" fill="#4a5160"/><path d="m272.5 221.57a17.192 17.192 0 0 0 -15.62-17.12l.01-.16a15.615 15.615 0 1 0 0-31.23l-66.995-.49.1-.08v-61.89c.005-13.25-10.905-23.6-24.155-23.6h-10.84v40.65a44.324 44.324 0 0 1 -2.5 14.78c-5.57 15.78-20.8 26.08-37.54 26.08l-.09-.01-13.845 113.13 1.375.37h18.85a92.824 92.824 0 0 1 49.03 13.77 57.883 57.883 0 0 0 20.54 8.035c6.75 1.32 13.82 1.195 22.49 1.195h34.88a16.5 16.5 0 1 0 0-33h7.62a16.566 16.566 0 0 0 11.8-4.81 16.283 16.283 0 0 0 4.89-11.65 16.56 16.56 0 0 0 -16.69-16.54h-.52a17.245 17.245 0 0 0 12.17-5.15 17.433 17.433 0 0 0 5.04-12.28z" fill="#ffd8b7"/><path d="m49.85 333.59v-255.47a34 34 0 0 1 34-34h-30a34 34 0 0 0 -34 34v255.47a34 34 0 0 0 34 34h30a34 34 0 0 1 -34-34z" fill="#4ea581"/><path d="m275.31 367.59h-30c67.89 0 42.95 100.29 42.95 100.29a88.784 88.784 0 0 0 33.326-19.58c3.354-29.191 2.384-80.71-46.276-80.71z" fill="#4ea581"/><g fill="#284268"><path d="m278.5 221.561a23.157 23.157 0 0 0 -7.216-16.805 21.629 21.629 0 0 0 -14.399-37.756h-60.885v-56.4c0-16.536-13.626-29.6-30.164-29.6h-10.76c-3.313 0-6.076 2.3-6.076 5.609v41.037a38.233 38.233 0 0 1 -2.15 12.781 33.356 33.356 0 0 1 -25.131 21.4l.516-4.136a5.961 5.961 0 0 0 -5.945-6.691h-44.526a5.982 5.982 0 0 0 -5.955 5.251l-17.649 143.986a6.027 6.027 0 0 0 5.955 6.763h44.526a5.845 5.845 0 0 0 5.955-5.09l1.726-13.91h14.928a86.551 86.551 0 0 1 45.866 12.675c16.119 10 28.2 10.325 46.193 10.325h34.885a22.477 22.477 0 0 0 22.618-22.421 22.2 22.2 0 0 0 -4.333-13.192 22.6 22.6 0 0 0 4.521-36.777 23.123 23.123 0 0 0 7.5-17.049zm-185.169 73.439h-32.431l16.173-132h32.437zm130.558-85h31.4a11.5 11.5 0 0 1 0 23h-22.984a6 6 0 0 0 0 12h23.5a10.5 10.5 0 1 1 0 21h-22.942a6 6 0 0 0 0 12h15.331a10.5 10.5 0 1 1 0 21h-34.885c-17.723 0-26.85-.447-39.867-8.522a98.545 98.545 0 0 0 -52.192-14.478h-13.456l12.426-101.582a45.592 45.592 0 0 0 37.944-29.892 50.79 50.79 0 0 0 2.836-16.88v-34.646h4.836c9.922 0 18.164 7.681 18.164 17.6v51.526a5.61 5.61 0 0 0 -4.463 1.221 5.967 5.967 0 0 0 -1.1 8.387 18.655 18.655 0 0 0 14.872 7.266h63.576a9.637 9.637 0 0 1 0 19.273l-33-.273a6 6 0 0 0 0 12z"/><path d="m457.885 134h-44.585a6 6 0 0 0 0 12h44.588a6 6 0 0 0 0-12z"/><path d="m300.631 146h79.141a6 6 0 0 0 0-12h-79.141a6 6 0 0 0 0 12z"/><path d="m457.885 182h-99.176a6 6 0 0 0 0 12h99.176a6 6 0 0 0 0-12z"/><path d="m300.631 194h22.554a6 6 0 0 0 0-12h-22.554a6 6 0 0 0 0 12z"/><path d="m457.885 229h-42.175a6 6 0 0 0 0 12h42.175a6 6 0 0 0 0-12z"/><path d="m388.185 235a6 6 0 0 0 -6-6h-81.554a6 6 0 0 0 0 12h81.554a6 6 0 0 0 6-6z"/><path d="m457.885 276h-92.175a6 6 0 0 0 0 12h92.175a6 6 0 0 0 0-12z"/><path d="m332.185 276h-31.554a6 6 0 0 0 0 12h31.554a6 6 0 0 0 0-12z"/><path d="m458.148 38h-404.296a40.023 40.023 0 0 0 -39.852 40.122v255.472c0 22.056 17.8 40.406 39.852 40.406h191.458c13.57 0 23.5 4.063 30.373 12.839 19.907 25.439 6.882 79.155 6.75 79.693a5.9 5.9 0 0 0 1.622 5.682 5.96 5.96 0 0 0 5.763 1.47c.715-.193 17.691-4.9 34.281-19.567 15.327-13.553 33.217-38.489 31.4-80.31 0-.1.021.057.044.033s.047.16.138.16h97.939a44.259 44.259 0 0 0 12.7-2.064 44.984 44.984 0 0 0 31.68-42.868v-250.946a40.023 40.023 0 0 0 -39.852-40.122zm27.852 291.068a32.909 32.909 0 0 1 -23.116 31.371 32.269 32.269 0 0 1 -9.263 1.561h-97.939a11.821 11.821 0 0 0 -12.17 12.426c1.284 29.579-7.8 53.235-26.988 70.411a86.924 86.924 0 0 1 -20.251 13.452c3.074-18.695 6.44-56.345-11.126-78.814-9.164-11.722-22.567-17.475-39.837-17.475h-191.458c-15.44 0-27.852-12.966-27.852-28.406v-255.472a28.009 28.009 0 0 1 27.852-28.122h404.3a28.009 28.009 0 0 1 27.848 28.122z"/><path d="m50 97a6 6 0 0 0 6-6v-8a6 6 0 0 0 -12 0v8a6 6 0 0 0 6 6z"/><path d="m56 176v-67a6 6 0 0 0 -12 0v67a6 6 0 0 0 12 0z"/></g></svg>