<svg id="Layer_1" height="50" viewBox="0 0 512 512" width="50" xmlns="http://www.w3.org/2000/svg" data-name="Layer 1"><path d="m492.15 78.12v250.95a38.485 38.485 0 0 1 -38.53 38.52h-97.94a6.146 6.146 0 0 0 -6.17 6.47c3.31 76.39-61.25 93.82-61.25 93.82s24.94-100.29-42.95-100.29h-191.46a34 34 0 0 1 -34-34v-255.47a34 34 0 0 1 34-34h404.3a34 34 0 0 1 34 34z" fill="#eb7288"/><path d="m112.34 115.52-44.25-4.93 1.58 145.06 44.25 4.94z" fill="#4a5160"/><path d="m280.09 180a16.865 16.865 0 0 0 .1-1.87 16.685 16.685 0 0 0 -14.84-16.56l-7.57-.85a16.865 16.865 0 0 0 1.87.1 16.616 16.616 0 0 0 1.82-33.13l-34.67-3.86a155.943 155.943 0 0 0 -17.07-1.23 58.492 58.492 0 0 0 -26.79 6.22 93.027 93.027 0 0 1 -50.27 8.45l-18.74-2.09-1.38.01 1.24 113.77h.11c16.64 1.86 30.65 13.79 34.44 30.09a44.333 44.333 0 0 1 .88 14.97l-4.55 40.78 10.69 1.2a24 24 0 0 0 26.51-21.19l6.86-61.51-.02-.09 68.47 7.06a15.619 15.619 0 0 0 1.72-31.14v-.15a17.2 17.2 0 0 0 17.43-15.29 17.946 17.946 0 0 0 .11-1.92 17.212 17.212 0 0 0 -15.23-17.08l.44.05a16.7 16.7 0 0 0 18.44-14.74z" fill="#ffd8b7"/><path d="m49.85 333.59v-255.47a34 34 0 0 1 34-34h-30a34 34 0 0 0 -34 34v255.47a34 34 0 0 0 34 34h30a34 34 0 0 1 -34-34z" fill="#c45f74"/><path d="m275.31 367.59h-30c67.89 0 42.95 100.29 42.95 100.29a88.784 88.784 0 0 0 33.326-19.58c3.354-29.191 2.384-80.71-46.276-80.71z" fill="#c45f74"/><g fill="#284268"><path d="m276.316 159.438a22.589 22.589 0 0 0 -14.184-37.708l-34.671-3.867c-17.876-1.993-29.968-2.616-47.1 5.535a86.932 86.932 0 0 1 -47.033 7.908l-14.828-1.655-.154-14.2a6 6 0 0 0 -5.335-5.9l-44.252-4.936a6 6 0 0 0 -6.665 6.028l1.576 145.073a6 6 0 0 0 5.335 5.9l44.917 4.972a6 6 0 0 0 6-6.065l-.045-4.166a33.383 33.383 0 0 1 22.623 24.054 38.292 38.292 0 0 1 .759 12.944l-4.549 40.784a6 6 0 0 0 5.3 6.628l10.69 1.193a30.577 30.577 0 0 0 3.383.189 30 30 0 0 0 29.749-26.672l6.259-56.115 60.68 6.767a21.721 21.721 0 0 0 2.438.137 21.6 21.6 0 0 0 16.047-36.025 23.151 23.151 0 0 0 3.47-33.683 22.651 22.651 0 0 0 -.41-37.12zm-200.7 90.838-1.451-132.976 32.237 3.6 1.447 132.976zm198.512-70.861a10.529 10.529 0 0 1 -3.949 7.124 10.7 10.7 0 0 1 -7.859 2.4l-23.359-2.625a5.948 5.948 0 1 0 -1.33 11.82l22.846 2.53a11.2 11.2 0 1 1 -2.488 22.264l-31.207-3.483a6 6 0 1 0 -1.33 11.924l32.784 3.733a9.612 9.612 0 1 1 -2.136 19.098l-63.185-7.047a18.772 18.772 0 0 0 -15.628 5.6 6 6 0 0 0 4.33 10.181l-5.712 51.211a18.021 18.021 0 0 1 -19.876 15.887l-4.731-.528 3.884-34.821a50.253 50.253 0 0 0 -1-16.993 45.534 45.534 0 0 0 -34.445-33.818l-1.107-102.132 13.37 1.491a98.93 98.93 0 0 0 53.519-9c13.831-6.584 23-6.41 40.61-4.445l34.671 3.867a10.617 10.617 0 0 1 -2.349 21.1l-15.242-1.7a6 6 0 0 0 -1.389 11.926l22.864 2.7a10.627 10.627 0 0 1 9.439 11.736z"/><path d="m457.885 134h-44.585a6 6 0 0 0 0 12h44.588a6 6 0 0 0 0-12z"/><path d="m300.631 146h79.141a6 6 0 0 0 0-12h-79.141a6 6 0 0 0 0 12z"/><path d="m457.885 182h-99.176a6 6 0 0 0 0 12h99.176a6 6 0 0 0 0-12z"/><path d="m300.631 194h22.554a6 6 0 0 0 0-12h-22.554a6 6 0 0 0 0 12z"/><path d="m457.885 229h-42.175a6 6 0 0 0 0 12h42.175a6 6 0 0 0 0-12z"/><path d="m388.185 235a6 6 0 0 0 -6-6h-81.554a6 6 0 0 0 0 12h81.554a6 6 0 0 0 6-6z"/><path d="m457.885 276h-92.175a6 6 0 0 0 0 12h92.175a6 6 0 0 0 0-12z"/><path d="m332.185 276h-31.554a6 6 0 0 0 0 12h31.554a6 6 0 0 0 0-12z"/><path d="m458.148 38h-404.296a40.023 40.023 0 0 0 -39.852 40.122v255.472c0 22.056 17.8 40.406 39.852 40.406h191.458c13.57 0 23.5 4.063 30.373 12.839 19.907 25.439 6.882 79.155 6.75 79.693a5.9 5.9 0 0 0 1.622 5.682 5.96 5.96 0 0 0 5.763 1.47c.715-.193 17.691-4.9 34.281-19.567 15.327-13.553 33.217-38.489 31.4-80.31 0-.1.021.057.044.033s.047.16.138.16h97.939a44.259 44.259 0 0 0 12.7-2.064 44.984 44.984 0 0 0 31.68-42.868v-250.946a40.023 40.023 0 0 0 -39.852-40.122zm27.852 291.068a32.909 32.909 0 0 1 -23.116 31.371 32.269 32.269 0 0 1 -9.263 1.561h-97.939a11.821 11.821 0 0 0 -12.17 12.426c1.284 29.579-7.8 53.235-26.988 70.411a86.924 86.924 0 0 1 -20.251 13.452c3.074-18.695 6.44-56.345-11.126-78.814-9.164-11.722-22.567-17.475-39.837-17.475h-191.458c-15.44 0-27.852-12.966-27.852-28.406v-255.472a28.009 28.009 0 0 1 27.852-28.122h404.3a28.009 28.009 0 0 1 27.848 28.122z"/><path d="m50 77a6 6 0 0 0 -6 6v8a6 6 0 0 0 12 0v-8a6 6 0 0 0 -6-6z"/><path d="m50 103a6 6 0 0 0 -6 6v67a6 6 0 0 0 12 0v-67a6 6 0 0 0 -6-6z"/></g></svg>