<svg id="Layer_1" height="512" viewBox="0 0 512 512" width="512" xmlns="http://www.w3.org/2000/svg" data-name="Layer 1"><path d="m434.06 98.91-101.87 46.36a8.138 8.138 0 0 0 -4.38 11.05l63.39 134.41a8.139 8.139 0 0 0 10.6 4l101.74-47.63z" fill="#71c2ff"/><path d="m177.54 153.5-92.6-53.25-76.48 146.42 92.2 51.6a8.142 8.142 0 0 0 11.2-3.31l68.66-130.71a8.163 8.163 0 0 0 -2.98-10.75z" fill="#7979c9"/><path d="m377.26 315.33-106.63-100.82a31.773 31.773 0 0 0 -13.71-7.99l-49.76-25.58c-1.48-.7-14.86-6.64-35.02-.74l-55.62 105.9 136.76 118.72a18.6 18.6 0 0 0 24.41-28.06l8.07 6.97a18.593 18.593 0 0 0 24.32-28.13l8.16 7.05a18.6 18.6 0 0 0 24.42-28.05c3.4 2.94 6.78 5.86 9.87 8.53a18.612 18.612 0 0 0 26.29-1.98l.31-.36a18.044 18.044 0 0 0 -1.87-25.46z" fill="#ffd8b7"/><path d="m333.64 168.69-.05.02-7.95 3.39c-11.81 2.53-19.97 2.15-31.59-1.12l-26.56-7.46a35.2 35.2 0 0 0 -20.13.33l-25.63 8.1a35.268 35.268 0 0 0 -21.8 19.87l-20.98 57.4 1.68.75a33.975 33.975 0 0 0 32.62-2.46 33.03 33.03 0 0 0 14.7-24.42q.075-.705.12-1.44s3.12-18.46 16.84-18.51l12.01 3.38a31.773 31.773 0 0 1 13.71 7.99l93.56 89.53.17-.2a45.745 45.745 0 0 0 23.01-21.22z" fill="#f5cac1"/><path d="m117.66 268.27-94.7-49.362-14.5 27.762 92.2 51.6a8.142 8.142 0 0 0 11.2-3.31l14.131-26.9a8.136 8.136 0 0 1 -8.331.21z" fill="#6363a5"/><path d="m279.961 379.159a18.5 18.5 0 0 1 -9.681-4.339l-137.4-119.87-16.36 31.15 136.76 118.72a18.588 18.588 0 0 0 26.681-25.661z" fill="#e8c5aa"/><path d="m233.57 372.87-2.13-1.54a15.636 15.636 0 0 0 -21.83 3.55l-8.57 11.89a15.648 15.648 0 0 0 3.55 21.84l2.13 1.53a15.636 15.636 0 0 0 21.83-3.55l9.71-13.74a15.629 15.629 0 0 0 -4.69-19.98z" fill="#e0b4ad"/><path d="m211.81 345.06-2.12-1.54a15.639 15.639 0 0 0 -21.78 3.48c-.03.02-.04.05-.06.07l-14.32 19.88a15.648 15.648 0 0 0 3.55 21.84l2.13 1.53a15.636 15.636 0 0 0 21.83-3.55l14.32-19.88a15.636 15.636 0 0 0 -3.55-21.83z" fill="#f5cac1"/><path d="m190.06 317.25-2.13-1.53a15.639 15.639 0 0 0 -21.7 3.35l-20.21 28.06a15.636 15.636 0 0 0 3.55 21.83l2.12 1.54a15.648 15.648 0 0 0 21.84-3.55l20.08-27.87a15.636 15.636 0 0 0 -3.55-21.83z" fill="#e0b4ad"/><path d="m169.58 287.66-2.13-1.53a15.648 15.648 0 0 0 -21.84 3.55l-27.1 37.63a15.634 15.634 0 0 0 3.54 21.83l2.13 1.54a15.648 15.648 0 0 0 21.84-3.55l27.11-37.63a15.648 15.648 0 0 0 -3.55-21.84z" fill="#f5cac1"/><g fill="#284268"><path d="m103.691 132.169a6 6 0 0 0 -8.117 2.473l-3.762 7.06a6 6 0 1 0 10.59 5.644l3.762-7.06a6 6 0 0 0 -2.473-8.117z"/><path d="m91.463 155.114a6 6 0 0 0 -8.117 2.473l-31.51 59.127a6 6 0 1 0 10.59 5.644l31.51-59.128a6 6 0 0 0 -2.473-8.116z"/><path d="m508.913 244.426-69.419-148.065a6 6 0 0 0 -7.918-2.914l-101.75 46.3a14.145 14.145 0 0 0 -7.444 19.126l3.178 6.738-1.738.74c-10.321 2.149-17.5 1.847-28.151-1.147l-26.553-7.463a41.08 41.08 0 0 0 -23.567.381l-25.627 8.106a41.123 41.123 0 0 0 -14.128 7.793 56.453 56.453 0 0 0 -22.542-2.088l2.573-4.9a14.17 14.17 0 0 0 -5.168-18.658c-.042-.025-.085-.051-.128-.075l-92.6-53.253a6 6 0 0 0 -8.309 2.424l-76.482 146.429a6 6 0 0 0 2.388 8.014l92.183 51.584a14.052 14.052 0 0 0 6.919 1.83 14.232 14.232 0 0 0 4.028-.587 14.029 14.029 0 0 0 8.518-6.988l.851-1.62 9.011 9.071-13.4 18.6a21.644 21.644 0 0 0 4.909 30.211l2.128 1.533a21.525 21.525 0 0 0 12.625 4.072 21.829 21.829 0 0 0 3.994-.375c.023.166.029.332.056.5a21.5 21.5 0 0 0 8.711 14.09l2.128 1.533a21.524 21.524 0 0 0 12.623 4.075 21.829 21.829 0 0 0 3.994-.375c.023.166.029.332.056.5a21.5 21.5 0 0 0 8.711 14.09l2.128 1.533a21.528 21.528 0 0 0 12.622 4.075 21.84 21.84 0 0 0 4-.377 21.563 21.563 0 0 0 8.759 14.59l2.128 1.533a21.662 21.662 0 0 0 30.211-4.909l6.16-8.549 9.869 7.886a24.575 24.575 0 0 0 40.47-16.54 24.552 24.552 0 0 0 32.48-21.084 24.561 24.561 0 0 0 32.4-20.247 24.321 24.321 0 0 0 9.828 2.082c.62 0 1.245-.023 1.87-.07a24.58 24.58 0 0 0 16.865-8.513l.308-.356a23.907 23.907 0 0 0 5.707-18.341 24.717 24.717 0 0 0 -8.576-15.918l-5.984-5.166a60.314 60.314 0 0 0 11.7-10.643 14.059 14.059 0 0 0 12.011 6.771 14.215 14.215 0 0 0 5.662-1.183l.159-.071 101.739-47.623a6.016 6.016 0 0 0 3.456-5.7 6.272 6.272 0 0 0 -.632-2.412zm-401.638 46.365a3.658 3.658 0 0 1 -5.025 1.492l-85.775-48 70.887-135.715 85.8 49.342a3.594 3.594 0 0 1 1.389 4.784zm33.875 52.83a9.655 9.655 0 0 1 -13.461 2.187l-2.128-1.533a9.641 9.641 0 0 1 -2.187-13.461l27.108-37.627a9.651 9.651 0 0 1 13.461-2.187l2.128 1.533a9.64 9.64 0 0 1 2.187 13.46zm27.52 19.821a9.664 9.664 0 0 1 -13.469 2.187l-2.128-1.533a9.643 9.643 0 0 1 -2.187-13.46l20.075-27.865a9.656 9.656 0 0 1 13.461-2.188l2.128 1.533a9.655 9.655 0 0 1 2.195 13.461zm27.5 19.821a9.655 9.655 0 0 1 -13.461 2.188l-2.128-1.534a9.643 9.643 0 0 1 -2.187-13.46l14.321-19.879a9.656 9.656 0 0 1 13.461-2.186l2.128 1.533a9.654 9.654 0 0 1 2.187 13.461zm36.078 7.931-8.566 11.89a9.655 9.655 0 0 1 -13.461 2.188l-2.128-1.533a9.655 9.655 0 0 1 -2.187-13.461l8.567-11.89a9.653 9.653 0 0 1 13.46-2.188l2.128 1.533a9.655 9.655 0 0 1 2.191 13.461zm132.911-94.326-58.859-55.535a3.8 3.8 0 0 0 -6.466 2.7 21.464 21.464 0 0 0 5.534 13.253l67.978 62.582a11.977 11.977 0 0 1 4.164 8.573 12.529 12.529 0 0 1 -3.165 8.711l-.06.07a12.652 12.652 0 0 1 -8.679 4.392 12.442 12.442 0 0 1 -9.151-3.024l-36.114-31.2a6.168 6.168 0 0 0 -8.532.316 6 6 0 0 0 .5 8.6l.069.059 26.3 22.723a12.593 12.593 0 0 1 -16.51 19.02l-26.327-22.743a6 6 0 1 0 -7.843 9.08l18.157 15.684a12.594 12.594 0 1 1 -16.466 19.06l-17.966-15.518a6.167 6.167 0 0 0 -8.531.316 6 6 0 0 0 .5 8.6l9.99 8.63a12.594 12.594 0 0 1 -16.482 19.057l-11.8-9.436a21.662 21.662 0 0 0 -8.32-22.838l-2.128-1.533a21.48 21.48 0 0 0 -11.163-4 21.674 21.674 0 0 0 -8.467-22.274l-2.128-1.533a21.48 21.48 0 0 0 -11.163-4 21.673 21.673 0 0 0 -8.466-22.273l-2.129-1.533a21.473 21.473 0 0 0 -10.38-3.941 21.624 21.624 0 0 0 -7.97-24.11l-2.128-1.533a21.668 21.668 0 0 0 -30.212 4.909l-6.6 9.158-10.271-10.339 52.354-99.684a50.779 50.779 0 0 1 20.875-1.095 41.65 41.65 0 0 0 -2.729 5.326l-21.131 57.818a6 6 0 0 0 3.261 7.349l1.682.75a39.721 39.721 0 0 0 38.386-2.954 39.048 39.048 0 0 0 17.349-28.832v-.013a17 17 0 0 1 .571-3.085c.9-3.131 3.094-8.9 7.44-10.8a5.336 5.336 0 0 1 3.591-.222l9.77 2.756a25.742 25.742 0 0 1 11.111 6.47l14.913 14.744c3.543 3.5 7.013 3.854 9.414 1.973a6 6 0 0 0 .539-9.008l-16.423-16.236a37.868 37.868 0 0 0 -16.3-9.494l-12.011-3.388a5.471 5.471 0 0 0 -1.653-.226c-7.827.032-14.51 4.446-18.818 12.427a39.884 39.884 0 0 0 -3.686 9.96 15.64 15.64 0 0 0 -.3 1.936l-.1 1.058a27.1 27.1 0 0 1 -12.055 20 27.97 27.97 0 0 1 -23.52 3.223l19.051-51.587a29.148 29.148 0 0 1 18.088-16.476l25.627-8.107a29.118 29.118 0 0 1 16.7-.27l26.553 7.464c12.819 3.6 21.84 3.918 34.479 1.208l3.779-1.493 49.934 105.877a41.315 41.315 0 0 1 -15.453 14.501zm37.855-9.335a6.065 6.065 0 0 1 -4.632.212 6.07 6.07 0 0 1 -3.431-3.12l-59.71-126.608a6.8 6.8 0 0 1 .2-6.193 7.024 7.024 0 0 1 3.293-2.947l92.4-42.05 64.414 137.389z"/></g></svg>