<svg id="Layer_1" height="512" viewBox="0 0 512 512" width="512" xmlns="http://www.w3.org/2000/svg" data-name="Layer 1"><path d="m273.72 101.26a21.51 21.51 0 0 0 -36.72 15.21v99.15a21.5 21.5 0 1 0 43 0v-99.15a21.431 21.431 0 0 0 -6.28-15.21z" fill="#80aaff"/><path d="m10 310v162h48v-16.8-145.2z" fill="#eecd7c"/><path d="m244.55 407h-.58a18.939 18.939 0 0 0 13.508-5.42 18.96 18.96 0 0 0 -13.478-32.41v-.17h1.74a17.289 17.289 0 0 0 17.32-17.275 17.752 17.752 0 0 0 -5.08-12.453 17.446 17.446 0 0 0 -12.24-5.272h-66.74l-1-47h-41.25c-15.95 0-22.92 8.39-26.89 16.93a46.581 46.581 0 0 1 -11.42 15.315 47.532 47.532 0 0 1 -16.58 9.427 46.969 46.969 0 0 1 -14.69 2.328h-9.17v124h15.75a102.552 102.552 0 0 1 52.3 14.17c.58.35 1.16.64 1.74 1 16.33 10.13 35.16 10.83 54.38 10.83h53.93a18.246 18.246 0 0 0 13.03-5.29 18.6 18.6 0 0 0 -13.03-31.71h8.45a18.3 18.3 0 0 0 13.09-5.24 18.625 18.625 0 0 0 -13.09-31.76z" fill="#ffd8b7"/><path d="m171 262v69.53l-.335-.025a13.469 13.469 0 0 0 8.2 2.5h55.135v-72.005z" fill="#6d7486"/><path d="m218.14 261.81v.47h-31.51v-52.16h31.51v.16z" fill="#53d8d8"/><path d="m429.48 44.82-149.48 76.45v89.55l149.48 76.45.2-.04.01-242.37z" fill="#53d8d8"/><path d="m186.26 122a30.2 30.2 0 0 0 -30.26 29.97v28.15a30.119 30.119 0 0 0 30.26 29.88h50.74v-88z" fill="#fb6771"/><path d="m471.4 135.32a30.725 30.725 0 1 1 0 61.45h-6.27v-61.45z" fill="#fb6771"/><path d="m448.5 31h-2.37a16.059 16.059 0 0 0 -16.13 13.97v242.13a16 16 0 0 0 16.13 13.9h2.37a16.257 16.257 0 0 0 16.5-16.32v-237.28a16.33 16.33 0 0 0 -16.5-16.4z" fill="#80aaff"/><path d="m10 310h26v162h-26z" fill="#c9ad6d"/><path d="m186.63 210.12h20v52.16h-20z" fill="#44b7b4"/><path d="m197 331.53v-69.53h-26v69.53l-.335-.025a13.469 13.469 0 0 0 8.2 2.5h26a13.469 13.469 0 0 1 -8.2-2.5z" fill="#4a5160"/><path d="m182 180.12v-28.15a30.2 30.2 0 0 1 30.26-29.97h-26a30.2 30.2 0 0 0 -30.26 29.97v28.15a30.119 30.119 0 0 0 30.26 29.88h26a30.119 30.119 0 0 1 -30.26-29.88z" fill="#c65560"/><g fill="#284268"><path d="m311 147a6 6 0 0 0 6-6v-8a6 6 0 0 0 -12 0v8a6 6 0 0 0 6 6z"/><path d="m9.872 478h48.249a5.776 5.776 0 0 0 5.879-5.855v-11.145h9.746a96.518 96.518 0 0 1 49.241 13.333c.55.326 1.1.6 1.639.934 17.557 10.892 37.238 11.733 57.543 11.733h53.931a24.288 24.288 0 0 0 19.288-39.232 24.443 24.443 0 0 0 5.015-40.6 25.151 25.151 0 0 0 .326-37.678 23.534 23.534 0 0 0 -14.989-41.49h-5.74v-65.721a6.13 6.13 0 0 0 -5.862-6.279h-10.138v-40h7.029a27.506 27.506 0 0 0 54.583 4.382l138.932 70.918a22.541 22.541 0 0 0 21.584 15.7h2.372a22.279 22.279 0 0 0 22.5-22.316v-81.684h.4a37 37 0 0 0 0-74h-.4v-81.6a22.353 22.353 0 0 0 -22.5-22.4h-2.375a22.567 22.567 0 0 0 -21.584 15.729l-138.932 71a27.5 27.5 0 0 0 -54.58 4.271h-44.772a36.236 36.236 0 0 0 -36.257 35.971v28.147c0 17.936 13 32.846 31 35.557v40.325h-10.372c-3.313 0-5.628 2.966-5.628 6.279v18.721h-28.249c-15.422 0-26 6.762-32.331 20.409a41.27 41.27 0 0 1 -37.253 23.591h-3.167v-15.07a5.839 5.839 0 0 0 -5.879-5.93h-48.249a5.833 5.833 0 0 0 -5.872 5.93v162.215a5.77 5.77 0 0 0 5.872 5.855zm461.128-337h.4a25 25 0 0 1 0 50h-.4zm-35-93.375a10.625 10.625 0 0 1 10.625-10.625h2.75a10.625 10.625 0 0 1 10.625 10.625v237.75a10.625 10.625 0 0 1 -10.625 10.625h-2.75a10.625 10.625 0 0 1 -10.625-10.625zm-150 77.312 138-70.308v222.83l-107-54.472v-63.987a6 6 0 0 0 -12 0v57.849l-19-9.7zm-43-8.468a15.5 15.5 0 1 1 31 0v99.151a15.5 15.5 0 1 1 -31 0zm-81 63.649v-28.147a24.223 24.223 0 0 1 24.257-23.971h44.743v76h-44.743a24.148 24.148 0 0 1 -24.257-23.882zm50 35.882v40h-19v-40zm-35 52h51v60h-49.136a8.864 8.864 0 0 1 -1.864-.2zm-113 69h3.167a52.834 52.834 0 0 0 48.139-30.567c3.059-6.592 8-13.433 21.445-13.433h28.249v22.614a6.337 6.337 0 0 0 -.991.024 5.842 5.842 0 0 0 -5.314 6.445 20.112 20.112 0 0 0 20.169 17.917h66.876a11.5 11.5 0 0 1 0 23h-38.528a6 6 0 0 0 0 12h36.758a13 13 0 1 1 0 26h-28.309a6 6 0 1 0 .015 12h28.87a12.5 12.5 0 1 1 0 25h-29.137a6 6 0 0 0 0 12h20.691a12.5 12.5 0 0 1 0 25h-53.931c-18.5 0-36.344-.654-51.217-9.881-.611-.378-1.224-.8-1.841-1.161a108.472 108.472 0 0 0 -55.365-14.958h-9.746zm-48-21h36v150h-36z"/></g></svg>